<svg xmlns="http://www.w3.org/2000/svg" viewBox="0 0 64 65.56">
  <defs/>
  <path fill="#1da1f2" d="M32.87 26.25c-3.44-.4-7.41-.73-10.62-2s-7.06-4.38-8.58-7.5c-1.59 3.98-.09 9.78 3.11 12.62a21.27 21.27 0 01-4.7-1.4c.43 3.94 4.09 7.8 7.9 8.85a15.82 15.82 0 01-6.35.8 29.98 29.98 0 006.29 4.53 16 16 0 004.59 1.42 5.63 5.63 0 01-3.07 1.35c-3.06.65-6.13 1.63-9.2 2.28 5.22 2.25 11.67 3.85 17.27 2.99a21.74 21.74 0 0014.31-8.37 29.8 29.8 0 003.47-6.8 33.2 33.2 0 002.36-9.16 2 2 0 01.2-.86 2.08 2.08 0 01.83-.68c1.45-.83 2.81-2.13 2.97-3.79l-3.68.94a17.67 17.67 0 002.06-3.29c-1.23.24-2.26 1.33-3.66 1.21a5.29 5.29 0 01-2.3-1.18 8.22 8.22 0 00-8.9.27 9.84 9.84 0 00-4.3 7.77z" data-name="bird fill"/>
  <path fill="#ffff80" d="M26.24 51.22a37.95 37.95 0 01-14.31-3.29.8.8 0 01.15-1.51c1.51-.33 3.06-.74 4.56-1.14 1.52-.4 3.09-.82 4.64-1.15a15 15 0 001-.24 12.52 12.52 0 01-2.75-1.04 30.6 30.6 0 01-6.47-4.67.8.8 0 01-.16-.9.82.82 0 01.8-.46 15.13 15.13 0 003.77-.18c-3.27-1.79-5.82-5.2-6.18-8.58a.8.8 0 01.31-.73.8.8 0 01.79-.1c.62.26 1.4.55 2.17.79-2.24-3.32-3.02-8.1-1.64-11.57a.8.8 0 01.72-.5.78.78 0 01.74.45c1.33 2.73 4.84 5.79 8.16 7.1a37.22 37.22 0 009.16 1.82l.43.05a10.6 10.6 0 014.58-7.55 9.03 9.03 0 019.8-.28c.16.1.32.21.47.33a3.31 3.31 0 001.46.73 3.56 3.56 0 001.79-.56 6.28 6.28 0 011.64-.65.8.8 0 01.84 1.2l-.57 1.02-.3.55 1.6-.4a.8.8 0 011 .84c-.16 1.69-1.36 3.25-3.37 4.42a1.75 1.75 0 00-.54.38 1.54 1.54 0 00-.1.5 34.31 34.31 0 01-2.4 9.41 30.56 30.56 0 01-3.56 6.97 22.44 22.44 0 01-14.84 8.7 22.25 22.25 0 01-3.4.24zM14.9 47.4c3.77 1.38 9.27 2.8 14.5 2a20.83 20.83 0 0013.77-8.04 29.15 29.15 0 003.37-6.61 32.76 32.76 0 002.3-8.94 2.72 2.72 0 01.3-1.2 2.65 2.65 0 011.08-.94 6.23 6.23 0 002.22-2l-2.27.59a.8.8 0 01-.78-1.33 6.09 6.09 0 00.8-1.08 3.85 3.85 0 01-1.89.35 4.58 4.58 0 01-2.24-1.01l-.42-.3a7.4 7.4 0 00-8.03.27 9.03 9.03 0 00-3.95 7.14.8.8 0 01-.28.58.75.75 0 01-.6.18l-1.26-.15a38.46 38.46 0 01-9.57-1.9 19.54 19.54 0 01-8-6.24 11.88 11.88 0 003.36 10 .8.8 0 01.2.93.78.78 0 01-.83.47 18.62 18.62 0 01-3.51-.92 10.87 10.87 0 007.02 6.8.8.8 0 01.08 1.52 15.78 15.78 0 01-4.5.88 32.14 32.14 0 004.53 3 14.85 14.85 0 004.35 1.34.8.8 0 01.48 1.29 6.1 6.1 0 01-3.52 1.63c-1.51.32-3.06.73-4.56 1.13l-2.15.56z" data-name="bird stroke"/>
  <path fill="#80ffea" d="M37.32 65.56c-6.17 0-12.41-.36-18.52-.71-2.66-.16-5.3-.3-7.93-.43-2.16-.1-5.12-.24-7.34-1.89C1.48 61.02.2 58.28.03 55.02a31.61 31.61 0 01.38-5.77c.1-.74.19-1.47.26-2.2A91.32 91.32 0 001 37.49c0-3.07-.22-6.35-.43-9.53-.2-3.2-.42-6.5-.43-9.61a36.58 36.58 0 01.21-5.1A18.8 18.8 0 012.7 6.38 10.83 10.83 0 016.34 2.4c2.28-1.39 5.4-1.32 8.14-1.26.7.02 1.37.03 2 .02 3.3-.05 6.76.09 10.1.22a111.42 111.42 0 0017.2-.21c1.04-.13 2.1-.3 3.16-.48C50.77.06 54.74-.6 58.4.96a7.23 7.23 0 014.22 4.24A10.13 10.13 0 0163 7.55a233 233 0 01.53 24.44c-.1 3.14.06 6.24.22 9.25.12 2.32.25 4.72.26 7.16a30.66 30.66 0 01-.24 4.8 19.3 19.3 0 01-1.63 5.2 12.08 12.08 0 01-2.72 3.95 11.42 11.42 0 01-6.79 2.55c-1.46.14-3.13.22-4.74.3l-2.66.13c-2.6.17-5.24.23-7.9.23zM12.75 2.72a11.05 11.05 0 00-5.57 1.05 9.33 9.33 0 00-3.1 3.41 17.19 17.19 0 00-2.15 6.28 35.26 35.26 0 00-.2 4.88c.01 3.06.23 6.35.43 9.52.2 3.2.42 6.51.44 9.62a92.48 92.48 0 01-.33 9.73L2 49.46a29.93 29.93 0 00-.37 5.47 8.29 8.29 0 002.85 6.32c1.7 1.25 3.93 1.45 6.47 1.57 2.62.12 5.28.27 7.95.43 8.68.5 17.67 1.02 26.23.48l2.68-.14c1.6-.08 3.24-.15 4.67-.29a9.91 9.91 0 005.87-2.15 10.24 10.24 0 002.33-3.42 17.73 17.73 0 001.5-4.77 29.42 29.42 0 00.22-4.56c-.01-2.4-.14-4.78-.26-7.08-.16-3.04-.32-6.18-.22-9.39a231.13 231.13 0 00-.52-24.27 8.87 8.87 0 00-.3-1.98 5.64 5.64 0 00-3.32-3.25c-3.24-1.37-6.8-.78-10.58-.16-1.08.18-2.16.35-3.23.48a112 112 0 01-17.44.22c-3.33-.12-6.76-.27-10.02-.2l-2.06-.03-1.7-.02z" data-name="square stroke"/>
</svg>
