<svg xmlns="http://www.w3.org/2000/svg" viewBox="0 0 560.8 424">
  <defs/>
  <defs>
    <linearGradient id="a" x1="1" x2="0" y1="1" gradientUnits="objectBoundingBox">
      <stop offset="0" stop-color="#ff80bf"/>
      <stop offset="1" stop-color="#ff9580"/>
    </linearGradient>
    <linearGradient id="b" x2="1" y2="1" gradientUnits="objectBoundingBox">
      <stop offset="0" stop-color="#ffff80"/>
      <stop offset="1" stop-color="#ffca80"/>
    </linearGradient>
    <linearGradient id="c" x1="1" x2="0" y1="1" gradientUnits="objectBoundingBox">
      <stop offset="0" stop-color="#9580ff"/>
      <stop offset="1" stop-color="#80ffea"/>
    </linearGradient>
  </defs>
  <path fill="url(#a)" d="M165.8 424v-18.9L164 401l2.7-12.3v-49.5l-1.5-4.2v-54.6l4.2-4.8 1.8.6h26.7l4.2 3.3 30.3-4.2 24-3.6 12 4v14.6l-5.4 3-64.2 4.8-2.1 1.8 4.5 30.6 2.7 8.1h7.8l24-2.7 6 .6h19.8l1.8 8.7-3.6 4.5-11.7 2.1h-9.3l-33 6.6v10.2l3.6 30.6 3 .3h61.5l5.7 1.8.6 3.2a23.2 23.2 0 00.6 2.2v2.1a5.2 5.2 0 01-1 1.7 23 23 0 00-2.3 3.7l-12.9 1-27.3 5.3-11.7 3.6zm-100.2-4.2H45.8l-3.3 2.7H38l-1.2-6.9v-52.8L35 362l5.7-.6v-80.7l5.4-4.5 12.3 2.1 2.7-2.7h4.8l16.2-1.8q0 1.8 3.3 2.4a38.6 38.6 0 006.9.6 60.8 60.8 0 0120.8 5 52 52 0 0114.9 9.9 40.3 40.3 0 019.1 13.3 38.5 38.5 0 013.2 15 6.5 6.5 0 01-1.7 4 45.7 45.7 0 01-3.6 4 32.3 32.3 0 01-4 3.4l-3.6 2.4a54.7 54.7 0 0121 19q7.5 12 7.5 28.4a16.5 16.5 0 01-3.8 10 39.9 39.9 0 01-8.8 8.6 86.7 86.7 0 01-10.4 6.3q-5.2 2.7-8.2 4L92 420.6a16 16 0 01-6.6 2.7 40.3 40.3 0 01-6.6.6zm15.6-66.6q-3 1-5.7 1.5v17.4l2.4 13.8v7.5h4.2l41.7-7.8 10.8-15q-1.5-6.6-5.4-9.6a23.4 23.4 0 00-8.9-4.2 67.8 67.8 0 00-10.5-1.6 71.7 71.7 0 01-10.6-1.7l-5.6-1.5a19.2 19.2 0 00-4.9-.6h-1.2l-6.3 1.8zM70.4 296v16.2l1.8 15.6 17.7 1.8q0 .6.9.6a6.1 6.1 0 002.1-.4l2.6-1 2.4-.8a4.9 4.9 0 001.3-.8l9-1.8 10.5-14.4a14 14 0 00-5.5-7.5 22 22 0 00-8.6-3.1q-4.8-.8-10.2-1a54.5 54.5 0 01-10.2-1.6l-4.5-1a7.2 7.2 0 01-2.1-1 6.9 6.9 0 00-.9-.5 2 2 0 00-.9-.2l-5.4 1zM416 421.3l-7.5 1.5-3.6-6.9-1.2-16.8v-55.8l5.7-57.3 4.5-6.6 20.1-1.8 2.7 3.6 2.4 29.7 7.2 18.3v65.1l2.1 6.6 7.8-1.8 14.4 1.8 9.6-2.7h24.3l6.6 7-2.7 15-15-1.6-12.6 4.2-31.2-2-9.3 2.6zm-110.4 0l-7.5 1.5-3.6-6.9-1.2-16.8v-55.8L299 286l4.5-6.6 20.1-1.8 2.7 3.6 9.6 113.1 2.1 6.6 7.8-1.8 14.4 1.8 9.6-2.7h24.3l6.6 7-2.7 15-15-1.6-12.6 4.2-31.2-2-9.3 2.6zm130-145.3l-.8-6.5v-50l-1.8-.8 5.1-.5v-76.3l4.7-4.3 10.5 2 2-2.3h4l23-2q.3 2.3 3 3a35.6 35.6 0 005.8 1 37.2 37.2 0 0118 5.4 45.4 45.4 0 0112.9 12 53.3 53.3 0 017.8 16 60.1 60.1 0 012.7 17.4 15.4 15.4 0 01-3.2 9.2 46.4 46.4 0 01-7.6 8 51.6 51.6 0 01-8.9 6.2q-4.5 2.4-7 3.5l-28.3 10.5a33.8 33.8 0 01-5 2.6 28.8 28.8 0 01-5.6 1.4l1 5.1-1.2 19.3.8 12.8-5.2 4.8h-19.8l-2.8 2.5zm31.7-114.8l-4 .5V181l2.1 13v7.7h3.9l35.4-8 9.3-14.1q-1.5-6.3-4.9-9a20.4 20.4 0 00-7.4-3.8 50.2 50.2 0 00-9-1.5 37.4 37.4 0 01-8.8-1.9q-8-2.5-12.8-2.5a25.6 25.6 0 00-3.8.3zM127.5 272.3l-.8-3.5q-.3-1.5-.5-4.1l2-6.8.7-2.8a12.3 12.3 0 01-2.3 2.2 9 9 0 00-2 1.4l-2.5 2.6-12.2.4-9.6.3-9.3.1H78.9a54.8 54.8 0 00-5.7-.7l-4.4-.1a31.3 31.3 0 00-4.5.3 27.4 27.4 0 01-4 .3 12.4 12.4 0 01-1.9-.2 17.6 17.6 0 01-2-.4 28.4 28.4 0 01-4.4-2 30.1 30.1 0 00-3-1.6l-3.7-1.8a45.8 45.8 0 00-6.6-2.6l-3-.8-6-6a4.6 4.6 0 00-1.4-3.4 19.9 19.9 0 01-3-4 35.5 35.5 0 01-2.9-7.7q-1.4-5-1.4-14a89.6 89.6 0 01.5-9.9 31.7 31.7 0 012.3-9q3.1-7 5.7-12a83.1 83.1 0 015.5-9.2 70.8 70.8 0 016.6-8q3.6-3.9 8.7-8.7A18.5 18.5 0 0154 158q2.8-1.7 6.4-3.4a62 62 0 017.6-3 25.6 25.6 0 017.9-1.2l7-2.3q5.3 0 9.6.2t8.3 0h18.5a7.6 7.6 0 012 3.6q.4 1.9.6 4a23.6 23.6 0 01.1 4.3 18.3 18.3 0 00.2 3.8l-5 13-8.4.9a27.7 27.7 0 00-4.8.4 34.1 34.1 0 01-5.7.4 3.9 3.9 0 01-1.2-.4 23 23 0 00-2.7-1 16 16 0 00-3.3.6l-5.2 1.4q-2.8.8-5.8 2a37.9 37.9 0 00-4.5 2q-.5 0-1.9 1.3t-2.8 2.6l-2.5 2.6-1 1.1-1.3 1.2a11.9 11.9 0 00-2.6 1.7 20 20 0 01-3.6 6.2l-4 4.5a24.3 24.3 0 00-3.2 4.9 15.2 15.2 0 00-1.3 6.8 32.9 32.9 0 001.2 9 25.7 25.7 0 003.2 7.1 22.4 22.4 0 004.5 5.1 7.9 7.9 0 005 2 1 1 0 00.8-.2 28 28 0 003 1.2 23 23 0 002.8.7l3.2.6 4.9.9q6.7 0 12-.5t13-.7l10.7.6 4.5.1 6 .2a9 9 0 00.5 2l1.6 4.8q0 2.2 1.6 2.7h.2v-.2l3.9-13.3 4.2-9.5q1.6-3.8 4.5-9.5a40.7 40.7 0 014.3-7.4q3-4.2 6.3-13.9a160.1 160.1 0 017.6-19 172.5 172.5 0 018.3-15.3q4.4-7 9.3-14.3t10.3-15.8h3.8a16.4 16.4 0 003 .3h4l6.3.5 5.2.2 5.2.3q2.6.2 6 .2l1.8 3.2q1.6 2.7 2.5 3.9a40.8 40.8 0 014.1 12.7l1.8 12 .6 5.7q.3 3.5 1 7 .5 3.4 1.2 6.5a13.3 13.3 0 002 4.8l3.7 21.3 3 18.4 2.9 18q1.5 9.3 3.6 20.6l-7.2.9a7.5 7.5 0 00-3.2.1 16.3 16.3 0 01-4 .4l-4.4-.1a32.6 32.6 0 01-3.3-.4l-8-.9-1.8-12.6a103.6 103.6 0 01-.8-13.5q0-2.5.5-2.8t.6-1.4q0-1.2-.4-4.6t-1-7l-10.9.4q-5.6.2-10.9.1h-7.3q-4 0-7.6.2a44.2 44.2 0 00-6.6.7 7.9 7.9 0 00-4.5 2.2l-4 11.4-3.5 9.8-3.5 9.5-3.9 10.7zm74-101.2l-3.3 3.1a42.6 42.6 0 00-8.5 12.6 153.6 153.6 0 00-6.2 15.5l-3.6 8.5v.3a.6.6 0 00.2.4.6.6 0 010 .4q5.5 0 12-.5l4.7.1 6 .1h11l1.4-1.7a51.2 51.2 0 01-.7-5.5l-.4-5-.5-10.2a39.5 39.5 0 00-2.3-9.3 49.4 49.4 0 01-2.6-11.7q-.7-.2-.7-.8v-.3h-.8a7.2 7.2 0 01-1-.1 10 10 0 00-1.8-.2 16.8 16.8 0 01-3 4.3zm79 97.3l-14.2-3.7q-1.8-.6-2.3-5.8t-.5-12l.1-13 .2-9 2.3-28.6-2.8-3.7V145h32.9l.2 1.7 4.7-.9 16 35.8.2 1.7 2.5 3v2l3.9 10.3L333 209l1.2 3.7 12.4-11 5.6-10.9v-2l3.4-3.4.5-2 22.1-38h2.3v-2h28.3l2.8 12 1.6 10.8a24 24 0 00-3 6 15.4 15.4 0 00-.3 2.5l-2.4 5.6 1.2 13.5q.4 5.2.4 10 0 5-.3 9.7t-1 12a67 67 0 01-.8 6.7q-.8 5.4-1.4 11.8t-1.4 12.4a75.9 75.9 0 00-.8 8.5l-1.3 2h-4.3l-14.2-4q-1.5-.6-2.2-6a101.1 101.1 0 01-.6-11.9q0-6.8.2-13t.3-8.8l-.3-26.7a18.6 18.6 0 00-3.2 7.1 32.1 32.1 0 00-.6 5.8 12.9 12.9 0 01-.5 4 2.4 2.4 0 01-2.6 1.5q-1 0-1.3-.2a6.7 6.7 0 00-3.8 2 36.7 36.7 0 00-2.4 3.2l-2 3.1a5.1 5.1 0 01-2.8 2.2 13.5 13.5 0 00-4.2 4.2 26.6 26.6 0 00-2 4.6l-1.4 4a6.9 6.9 0 01-2 3l-8.7 8h-.3a2 2 0 01-.6-.2 3.6 3.6 0 00-1.2-.1q-.5.6-.7.6v.3l-4.4-1.7a17.2 17.2 0 01-3-1.5l-3.4-2.2h-.8q-.3-.6-.3-.3t-.5-.9H327l-6.1-7.6a4.1 4.1 0 01-1.7-2.3l-1.3-4a47.3 47.3 0 00-1.5-4.5 9.8 9.8 0 00-2.5-3.7 5.7 5.7 0 01-2.3-2.3l-1.5-3a21.2 21.2 0 00-1.7-2.8 6.6 6.6 0 00-3-2.1q-.2.3-1.2.3-2.1 0-2.1-2.3a13.3 13.3 0 01.4-2.8 16.7 16.7 0 00.4-3.7 9.2 9.2 0 00-2-6l-3.4-7H294a48.7 48.7 0 00-.5 6.6v12.6l-.1 8.8q-.1 4.5-.7 10.2a48.2 48.2 0 01-1 6.7l-2.3 11.3q-1.3 6.1-2.2 12.2a68.9 68.9 0 00-.9 9.3l-1.8 1.4zM511.9 131l-4-2.7a4 4 0 01-2-4q-3.3-3.7-5.5-6.5t-4.2-5.6l-4-5.7a85.2 85.2 0 00-5.7-7.2 5.3 5.3 0 00-2.4-4.5 11 11 0 01-3.6-4.8 21.6 21.6 0 00-3-2.5 15 15 0 01-3.5-3.8l-8.3 2.6a32.5 32.5 0 01-5.2 2.4A36.3 36.3 0 01455 90l1 4.6-1.3 17.7.8 12-5 4.4h-20.2l-2.9 2h-3.9l-1-5.9V79l-1.8-.5 5.2-.8V7.8l4.7-3.9 10.6 2 1.8-2.3h4.2l23.4-1.8q.3 2.1 3 2.8a39.5 39.5 0 005.8.9 40.5 40.5 0 0118.2 4.9 44.5 44.5 0 0113 11 45.1 45.1 0 017.8 14.6 52.7 52.7 0 012.6 16 12.8 12.8 0 01-2.6 7.5 35.8 35.8 0 01-6.3 6.8 68 68 0 01-7.8 5.6 34 34 0 01-6.4 3.2q6.5 7.8 13.7 15.3t15.7 15.2a51 51 0 003.8 3.9q2.2 2 4.4 4.3a51.4 51.4 0 013.7 4.1 5.8 5.8 0 011.6 3.3q0 1.8-4.8 3.6a107.6 107.6 0 00-10 4.4l-9.1 4.4zM455 25.6l-3.6.4v17.7l2 12.2v6.8h4l35.8-7 9.4-13q-1.6-6-5-8.5a21.4 21.4 0 00-7.6-3.5 49.8 49.8 0 00-9-1.3 36.3 36.3 0 01-8.8-1.6l-7.7-1.7a28.7 28.7 0 00-6.1-.6l-3.4.1zM308.6 132.1v-16.4l-1.5-3.6 2.3-10.7V58.5l-1.3-3.6V7.5l3.6-4.1 1.6.5h23.1l3.7 2.9L366.3 3 387.1 0l10.4 3.4V16l-4.6 2.6-55.7 4.2-1.8 1.5 3.9 26.6 2.3 7h6.8l20.8-2.4 5.2.6h17.2l1.5 7.5-3.1 3.9-10.1 1.8h-8.1l-28.6 5.7V84l3.1 26.5 2.6.3h53.3l5 1.5.5 2.8a19.8 19.8 0 00.5 1.9v1.8a4.5 4.5 0 01-1 1.5 20 20 0 00-1.9 3.2l-11.1.8-23.7 4.7-10.1 3zM43.4 130l-6.5 1.3-3.1-6-.8-14.8V74.1l4.4-25V32.2H36q0-1-2.1-1a3.5 3.5 0 00-2.9 1.3l-4.6.5a22.5 22.5 0 00-2.5.2 19.9 19.9 0 01-2.2 0 12 12 0 00-2.1-.6 14 14 0 00-3.4-.4q-1.8 0-2 .8l-4.9.4-3.7.1a4.6 4.6 0 01-1.3-.6 9.6 9.6 0 01-1-1A4.1 4.1 0 011 29.5a16.2 16.2 0 01-.9-5L0 19v-4l.7-.6.9-.9L3.4 12h4.1a25.8 25.8 0 003.7.2h4.1L17 12l1.3-.8q8.8 0 16.4.6t15 1.5l14.9 1.4q7.6.7 16.9.6a1.8 1.8 0 00.5 1.3l.8.8a6.5 6.5 0 002.3.3q4 0 6.1-.2A20.8 20.8 0 0095 17l1.2-.3-4.3-7 .8-2.7 13.5-.8 2.6.6 18 20 2.3 3.1 19 17.4 3.3-1.8 2.1-2.6 2.6-1 3.9-7.6 4.2-5 7-4 14.5-19.8h17.2l4.7.5v5.2L202 20l-3.9 10.4-20 29.7-7 6-3.7 6h-1v4.3l-.5 2.1 1.3 9.9 1.8 6.2-1.8 17.7 1.3 12-5.2 4.4H143l-2.9 2h-3.9l-2.8-5.9 4.1-53h.6l-2.9-1.6-.8-2.9-21.3-21.5-4.2-8.1-5.2-8.6a24.6 24.6 0 01-4.8 2.2q-2.7 1-3.7 1.2h-5.6a29.8 29.8 0 01-5.4-.5 48.6 48.6 0 00-5.3.9 8.9 8.9 0 01-4.8.1l-2.3-.8h-9.4l1 14L69.7 62v44.4l1.5 5.5v18l-6.7 2zm178.1-.3L215 131l-3.1-6-1-14.5V62.1l4.9-25V12.6l3.9-5.7 24.4-1.6 2.4 3.1 1.3 98 1.8 5.8 6.8-1.6 12.4 1.6 8.4-2.4h21l5.7 6-2.3 13-13-1.3-11 3.6-27-1.8-8 2.4z" data-name="tyler back" transform="translate(20)"/>
  <path fill="url(#b)" d="M165.8 424v-18.9L164 401l2.7-12.3v-49.5l-1.5-4.2v-54.6l4.2-4.8 1.8.6h26.7l4.2 3.3 30.3-4.2 24-3.6 12 4v14.6l-5.4 3-64.2 4.8-2.1 1.8 4.5 30.6 2.7 8.1h7.8l24-2.7 6 .6h19.8l1.8 8.7-3.6 4.5-11.7 2.1h-9.3l-33 6.6v10.2l3.6 30.6 3 .3h61.5l5.7 1.8.6 3.2a23.2 23.2 0 00.6 2.2v2.1a5.2 5.2 0 01-1 1.7 23 23 0 00-2.3 3.7l-12.9 1-27.3 5.3-11.7 3.6zm-100.2-4.2H45.8l-3.3 2.7H38l-1.2-6.9v-52.8L35 362l5.7-.6v-80.7l5.4-4.5 12.3 2.1 2.7-2.7h4.8l16.2-1.8q0 1.8 3.3 2.4a38.6 38.6 0 006.9.6 60.8 60.8 0 0120.8 5 52 52 0 0114.9 9.9 40.3 40.3 0 019.1 13.3 38.5 38.5 0 013.2 15 6.5 6.5 0 01-1.7 4 45.7 45.7 0 01-3.6 4 32.3 32.3 0 01-4 3.4l-3.6 2.4a54.7 54.7 0 0121 19q7.5 12 7.5 28.4a16.5 16.5 0 01-3.8 10 39.9 39.9 0 01-8.8 8.6 86.7 86.7 0 01-10.4 6.3q-5.2 2.7-8.2 4L92 420.6a16 16 0 01-6.6 2.7 40.3 40.3 0 01-6.6.6zm15.6-66.6q-3 1-5.7 1.5v17.4l2.4 13.8v7.5h4.2l41.7-7.8 10.8-15q-1.5-6.6-5.4-9.6a23.4 23.4 0 00-8.9-4.2 67.8 67.8 0 00-10.5-1.6 71.7 71.7 0 01-10.6-1.7l-5.6-1.5a19.2 19.2 0 00-4.9-.6h-1.2l-6.3 1.8zM70.4 296v16.2l1.8 15.6 17.7 1.8q0 .6.9.6a6.1 6.1 0 002.1-.4l2.6-1 2.4-.8a4.9 4.9 0 001.3-.8l9-1.8 10.5-14.4a14 14 0 00-5.5-7.5 22 22 0 00-8.6-3.1q-4.8-.8-10.2-1a54.5 54.5 0 01-10.2-1.6l-4.5-1a7.2 7.2 0 01-2.1-1 6.9 6.9 0 00-.9-.5 2 2 0 00-.9-.2l-5.4 1zM416 421.3l-7.5 1.5-3.6-6.9-1.2-16.8v-55.8l5.7-57.3 4.5-6.6 20.1-1.8 2.7 3.6 2.4 29.7 7.2 18.3v65.1l2.1 6.6 7.8-1.8 14.4 1.8 9.6-2.7h24.3l6.6 7-2.7 15-15-1.6-12.6 4.2-31.2-2-9.3 2.6zm-110.4 0l-7.5 1.5-3.6-6.9-1.2-16.8v-55.8L299 286l4.5-6.6 20.1-1.8 2.7 3.6 9.6 113.1 2.1 6.6 7.8-1.8 14.4 1.8 9.6-2.7h24.3l6.6 7-2.7 15-15-1.6-12.6 4.2-31.2-2-9.3 2.6zm130-145.3l-.8-6.5v-50l-1.8-.8 5.1-.5v-76.3l4.7-4.3 10.5 2 2-2.3h4l23-2q.3 2.3 3 3a35.6 35.6 0 005.8 1 37.2 37.2 0 0118 5.4 45.4 45.4 0 0112.9 12 53.3 53.3 0 017.8 16 60.1 60.1 0 012.7 17.4 15.4 15.4 0 01-3.2 9.2 46.4 46.4 0 01-7.6 8 51.6 51.6 0 01-8.9 6.2q-4.5 2.4-7 3.5l-28.3 10.5a33.8 33.8 0 01-5 2.6 28.8 28.8 0 01-5.6 1.4l1 5.1-1.2 19.3.8 12.8-5.2 4.8h-19.8l-2.8 2.5zm31.7-114.8l-4 .5V181l2.1 13v7.7h3.9l35.4-8 9.3-14.1q-1.5-6.3-4.9-9a20.4 20.4 0 00-7.4-3.8 50.2 50.2 0 00-9-1.5 37.4 37.4 0 01-8.8-1.9q-8-2.5-12.8-2.5a25.6 25.6 0 00-3.8.3zM127.5 272.3l-.8-3.5q-.3-1.5-.5-4.1l2-6.8.7-2.8a12.3 12.3 0 01-2.3 2.2 9 9 0 00-2 1.4l-2.5 2.6-12.2.4-9.6.3-9.3.1H78.9a54.8 54.8 0 00-5.7-.7l-4.4-.1a31.3 31.3 0 00-4.5.3 27.4 27.4 0 01-4 .3 12.4 12.4 0 01-1.9-.2 17.6 17.6 0 01-2-.4 28.4 28.4 0 01-4.4-2 30.1 30.1 0 00-3-1.6l-3.7-1.8a45.8 45.8 0 00-6.6-2.6l-3-.8-6-6a4.6 4.6 0 00-1.4-3.4 19.9 19.9 0 01-3-4 35.5 35.5 0 01-2.9-7.7q-1.4-5-1.4-14a89.6 89.6 0 01.5-9.9 31.7 31.7 0 012.3-9q3.1-7 5.7-12a83.1 83.1 0 015.5-9.2 70.8 70.8 0 016.6-8q3.6-3.9 8.7-8.7A18.5 18.5 0 0154 158q2.8-1.7 6.4-3.4a62 62 0 017.6-3 25.6 25.6 0 017.9-1.2l7-2.3q5.3 0 9.6.2t8.3 0h18.5a7.6 7.6 0 012 3.6q.4 1.9.6 4a23.6 23.6 0 01.1 4.3 18.3 18.3 0 00.2 3.8l-5 13-8.4.9a27.7 27.7 0 00-4.8.4 34.1 34.1 0 01-5.7.4 3.9 3.9 0 01-1.2-.4 23 23 0 00-2.7-1 16 16 0 00-3.3.6l-5.2 1.4q-2.8.8-5.8 2a37.9 37.9 0 00-4.5 2q-.5 0-1.9 1.3t-2.8 2.6l-2.5 2.6-1 1.1-1.3 1.2a11.9 11.9 0 00-2.6 1.7 20 20 0 01-3.6 6.2l-4 4.5a24.3 24.3 0 00-3.2 4.9 15.2 15.2 0 00-1.3 6.8 32.9 32.9 0 001.2 9 25.7 25.7 0 003.2 7.1 22.4 22.4 0 004.5 5.1 7.9 7.9 0 005 2 1 1 0 00.8-.2 28 28 0 003 1.2 23 23 0 002.8.7l3.2.6 4.9.9q6.7 0 12-.5t13-.7l10.7.6 4.5.1 6 .2a9 9 0 00.5 2l1.6 4.8q0 2.2 1.6 2.7h.2v-.2l3.9-13.3 4.2-9.5q1.6-3.8 4.5-9.5a40.7 40.7 0 014.3-7.4q3-4.2 6.3-13.9a160.1 160.1 0 017.6-19 172.5 172.5 0 018.3-15.3q4.4-7 9.3-14.3t10.3-15.8h3.8a16.4 16.4 0 003 .3h4l6.3.5 5.2.2 5.2.3q2.6.2 6 .2l1.8 3.2q1.6 2.7 2.5 3.9a40.8 40.8 0 014.1 12.7l1.8 12 .6 5.7q.3 3.5 1 7 .5 3.4 1.2 6.5a13.3 13.3 0 002 4.8l3.7 21.3 3 18.4 2.9 18q1.5 9.3 3.6 20.6l-7.2.9a7.5 7.5 0 00-3.2.1 16.3 16.3 0 01-4 .4l-4.4-.1a32.6 32.6 0 01-3.3-.4l-8-.9-1.8-12.6a103.6 103.6 0 01-.8-13.5q0-2.5.5-2.8t.6-1.4q0-1.2-.4-4.6t-1-7l-10.9.4q-5.6.2-10.9.1h-7.3q-4 0-7.6.2a44.2 44.2 0 00-6.6.7 7.9 7.9 0 00-4.5 2.2l-4 11.4-3.5 9.8-3.5 9.5-3.9 10.7zm74-101.2l-3.3 3.1a42.6 42.6 0 00-8.5 12.6 153.6 153.6 0 00-6.2 15.5l-3.6 8.5v.3a.6.6 0 00.2.4.6.6 0 010 .4q5.5 0 12-.5l4.7.1 6 .1h11l1.4-1.7a51.2 51.2 0 01-.7-5.5l-.4-5-.5-10.2a39.5 39.5 0 00-2.3-9.3 49.4 49.4 0 01-2.6-11.7q-.7-.2-.7-.8v-.3h-.8a7.2 7.2 0 01-1-.1 10 10 0 00-1.8-.2 16.8 16.8 0 01-3 4.3zm79 97.3l-14.2-3.7q-1.8-.6-2.3-5.8t-.5-12l.1-13 .2-9 2.3-28.6-2.8-3.7V145h32.9l.2 1.7 4.7-.9 16 35.8.2 1.7 2.5 3v2l3.9 10.3L333 209l1.2 3.7 12.4-11 5.6-10.9v-2l3.4-3.4.5-2 22.1-38h2.3v-2h28.3l2.8 12 1.6 10.8a24 24 0 00-3 6 15.4 15.4 0 00-.3 2.5l-2.4 5.6 1.2 13.5q.4 5.2.4 10 0 5-.3 9.7t-1 12a67 67 0 01-.8 6.7q-.8 5.4-1.4 11.8t-1.4 12.4a75.9 75.9 0 00-.8 8.5l-1.3 2h-4.3l-14.2-4q-1.5-.6-2.2-6a101.1 101.1 0 01-.6-11.9q0-6.8.2-13t.3-8.8l-.3-26.7a18.6 18.6 0 00-3.2 7.1 32.1 32.1 0 00-.6 5.8 12.9 12.9 0 01-.5 4 2.4 2.4 0 01-2.6 1.5q-1 0-1.3-.2a6.7 6.7 0 00-3.8 2 36.7 36.7 0 00-2.4 3.2l-2 3.1a5.1 5.1 0 01-2.8 2.2 13.5 13.5 0 00-4.2 4.2 26.6 26.6 0 00-2 4.6l-1.4 4a6.9 6.9 0 01-2 3l-8.7 8h-.3a2 2 0 01-.6-.2 3.6 3.6 0 00-1.2-.1q-.5.6-.7.6v.3l-4.4-1.7a17.2 17.2 0 01-3-1.5l-3.4-2.2h-.8q-.3-.6-.3-.3t-.5-.9H327l-6.1-7.6a4.1 4.1 0 01-1.7-2.3l-1.3-4a47.3 47.3 0 00-1.5-4.5 9.8 9.8 0 00-2.5-3.7 5.7 5.7 0 01-2.3-2.3l-1.5-3a21.2 21.2 0 00-1.7-2.8 6.6 6.6 0 00-3-2.1q-.2.3-1.2.3-2.1 0-2.1-2.3a13.3 13.3 0 01.4-2.8 16.7 16.7 0 00.4-3.7 9.2 9.2 0 00-2-6l-3.4-7H294a48.7 48.7 0 00-.5 6.6v12.6l-.1 8.8q-.1 4.5-.7 10.2a48.2 48.2 0 01-1 6.7l-2.3 11.3q-1.3 6.1-2.2 12.2a68.9 68.9 0 00-.9 9.3l-1.8 1.4zM511.9 131l-4-2.7a4 4 0 01-2-4q-3.3-3.7-5.5-6.5t-4.2-5.6l-4-5.7a85.2 85.2 0 00-5.7-7.2 5.3 5.3 0 00-2.4-4.5 11 11 0 01-3.6-4.8 21.6 21.6 0 00-3-2.5 15 15 0 01-3.5-3.8l-8.3 2.6a32.5 32.5 0 01-5.2 2.4A36.3 36.3 0 01455 90l1 4.6-1.3 17.7.8 12-5 4.4h-20.2l-2.9 2h-3.9l-1-5.9V79l-1.8-.5 5.2-.8V7.8l4.7-3.9 10.6 2 1.8-2.3h4.2l23.4-1.8q.3 2.1 3 2.8a39.5 39.5 0 005.8.9 40.5 40.5 0 0118.2 4.9 44.5 44.5 0 0113 11 45.1 45.1 0 017.8 14.6 52.7 52.7 0 012.6 16 12.8 12.8 0 01-2.6 7.5 35.8 35.8 0 01-6.3 6.8 68 68 0 01-7.8 5.6 34 34 0 01-6.4 3.2q6.5 7.8 13.7 15.3t15.7 15.2a51 51 0 003.8 3.9q2.2 2 4.4 4.3a51.4 51.4 0 013.7 4.1 5.8 5.8 0 011.6 3.3q0 1.8-4.8 3.6a107.6 107.6 0 00-10 4.4l-9.1 4.4zM455 25.6l-3.6.4v17.7l2 12.2v6.8h4l35.8-7 9.4-13q-1.6-6-5-8.5a21.4 21.4 0 00-7.6-3.5 49.8 49.8 0 00-9-1.3 36.3 36.3 0 01-8.8-1.6l-7.7-1.7a28.7 28.7 0 00-6.1-.6l-3.4.1zM308.6 132.1v-16.4l-1.5-3.6 2.3-10.7V58.5l-1.3-3.6V7.5l3.6-4.1 1.6.5h23.1l3.7 2.9L366.3 3 387.1 0l10.4 3.4V16l-4.6 2.6-55.7 4.2-1.8 1.5 3.9 26.6 2.3 7h6.8l20.8-2.4 5.2.6h17.2l1.5 7.5-3.1 3.9-10.1 1.8h-8.1l-28.6 5.7V84l3.1 26.5 2.6.3h53.3l5 1.5.5 2.8a19.8 19.8 0 00.5 1.9v1.8a4.5 4.5 0 01-1 1.5 20 20 0 00-1.9 3.2l-11.1.8-23.7 4.7-10.1 3zM43.4 130l-6.5 1.3-3.1-6-.8-14.8V74.1l4.4-25V32.2H36q0-1-2.1-1a3.5 3.5 0 00-2.9 1.3l-4.6.5a22.5 22.5 0 00-2.5.2 19.9 19.9 0 01-2.2 0 12 12 0 00-2.1-.6 14 14 0 00-3.4-.4q-1.8 0-2 .8l-4.9.4-3.7.1a4.6 4.6 0 01-1.3-.6 9.6 9.6 0 01-1-1A4.1 4.1 0 011 29.5a16.2 16.2 0 01-.9-5L0 19v-4l.7-.6.9-.9L3.4 12h4.1a25.8 25.8 0 003.7.2h4.1L17 12l1.3-.8q8.8 0 16.4.6t15 1.5l14.9 1.4q7.6.7 16.9.6a1.8 1.8 0 00.5 1.3l.8.8a6.5 6.5 0 002.3.3q4 0 6.1-.2A20.8 20.8 0 0095 17l1.2-.3-4.3-7 .8-2.7 13.5-.8 2.6.6 18 20 2.3 3.1 19 17.4 3.3-1.8 2.1-2.6 2.6-1 3.9-7.6 4.2-5 7-4 14.5-19.8h17.2l4.7.5v5.2L202 20l-3.9 10.4-20 29.7-7 6-3.7 6h-1v4.3l-.5 2.1 1.3 9.9 1.8 6.2-1.8 17.7 1.3 12-5.2 4.4H143l-2.9 2h-3.9l-2.8-5.9 4.1-53h.6l-2.9-1.6-.8-2.9-21.3-21.5-4.2-8.1-5.2-8.6a24.6 24.6 0 01-4.8 2.2q-2.7 1-3.7 1.2h-5.6a29.8 29.8 0 01-5.4-.5 48.6 48.6 0 00-5.3.9 8.9 8.9 0 01-4.8.1l-2.3-.8h-9.4l1 14L69.7 62v44.4l1.5 5.5v18l-6.7 2zm178.1-.3L215 131l-3.1-6-1-14.5V62.1l4.9-25V12.6l3.9-5.7 24.4-1.6 2.4 3.1 1.3 98 1.8 5.8 6.8-1.6 12.4 1.6 8.4-2.4h21l5.7 6-2.3 13-13-1.3-11 3.6-27-1.8-8 2.4z" data-name="tyler mid"/>
  <path fill="url(#c)" d="M165.8 424v-18.9L164 401l2.7-12.3v-49.5l-1.5-4.2v-54.6l4.2-4.8 1.8.6h26.7l4.2 3.3 30.3-4.2 24-3.6 12 4v14.6l-5.4 3-64.2 4.8-2.1 1.8 4.5 30.6 2.7 8.1h7.8l24-2.7 6 .6h19.8l1.8 8.7-3.6 4.5-11.7 2.1h-9.3l-33 6.6v10.2l3.6 30.6 3 .3h61.5l5.7 1.8.6 3.2a23.2 23.2 0 00.6 2.2v2.1a5.2 5.2 0 01-1 1.7 23 23 0 00-2.3 3.7l-12.9 1-27.3 5.3-11.7 3.6zm-100.2-4.2H45.8l-3.3 2.7H38l-1.2-6.9v-52.8L35 362l5.7-.6v-80.7l5.4-4.5 12.3 2.1 2.7-2.7h4.8l16.2-1.8q0 1.8 3.3 2.4a38.6 38.6 0 006.9.6 60.8 60.8 0 0120.8 5 52 52 0 0114.9 9.9 40.3 40.3 0 019.1 13.3 38.5 38.5 0 013.2 15 6.5 6.5 0 01-1.7 4 45.7 45.7 0 01-3.6 4 32.3 32.3 0 01-4 3.4l-3.6 2.4a54.7 54.7 0 0121 19q7.5 12 7.5 28.4a16.5 16.5 0 01-3.8 10 39.9 39.9 0 01-8.8 8.6 86.7 86.7 0 01-10.4 6.3q-5.2 2.7-8.2 4L92 420.6a16 16 0 01-6.6 2.7 40.3 40.3 0 01-6.6.6zm15.6-66.6q-3 1-5.7 1.5v17.4l2.4 13.8v7.5h4.2l41.7-7.8 10.8-15q-1.5-6.6-5.4-9.6a23.4 23.4 0 00-8.9-4.2 67.8 67.8 0 00-10.5-1.6 71.7 71.7 0 01-10.6-1.7l-5.6-1.5a19.2 19.2 0 00-4.9-.6h-1.2l-6.3 1.8zM70.4 296v16.2l1.8 15.6 17.7 1.8q0 .6.9.6a6.1 6.1 0 002.1-.4l2.6-1 2.4-.8a4.9 4.9 0 001.3-.8l9-1.8 10.5-14.4a14 14 0 00-5.5-7.5 22 22 0 00-8.6-3.1q-4.8-.8-10.2-1a54.5 54.5 0 01-10.2-1.6l-4.5-1a7.2 7.2 0 01-2.1-1 6.9 6.9 0 00-.9-.5 2 2 0 00-.9-.2l-5.4 1zM416 421.3l-7.5 1.5-3.6-6.9-1.2-16.8v-55.8l5.7-57.3 4.5-6.6 20.1-1.8 2.7 3.6 2.4 29.7 7.2 18.3v65.1l2.1 6.6 7.8-1.8 14.4 1.8 9.6-2.7h24.3l6.6 7-2.7 15-15-1.6-12.6 4.2-31.2-2-9.3 2.6zm-110.4 0l-7.5 1.5-3.6-6.9-1.2-16.8v-55.8L299 286l4.5-6.6 20.1-1.8 2.7 3.6 9.6 113.1 2.1 6.6 7.8-1.8 14.4 1.8 9.6-2.7h24.3l6.6 7-2.7 15-15-1.6-12.6 4.2-31.2-2-9.3 2.6zm130-145.3l-.8-6.5v-50l-1.8-.8 5.1-.5v-76.3l4.7-4.3 10.5 2 2-2.3h4l23-2q.3 2.3 3 3a35.6 35.6 0 005.8 1 37.2 37.2 0 0118 5.4 45.4 45.4 0 0112.9 12 53.3 53.3 0 017.8 16 60.1 60.1 0 012.7 17.4 15.4 15.4 0 01-3.2 9.2 46.4 46.4 0 01-7.6 8 51.6 51.6 0 01-8.9 6.2q-4.5 2.4-7 3.5l-28.3 10.5a33.8 33.8 0 01-5 2.6 28.8 28.8 0 01-5.6 1.4l1 5.1-1.2 19.3.8 12.8-5.2 4.8h-19.8l-2.8 2.5zm31.7-114.8l-4 .5V181l2.1 13v7.7h3.9l35.4-8 9.3-14.1q-1.5-6.3-4.9-9a20.4 20.4 0 00-7.4-3.8 50.2 50.2 0 00-9-1.5 37.4 37.4 0 01-8.8-1.9q-8-2.5-12.8-2.5a25.6 25.6 0 00-3.8.3zM127.5 272.3l-.8-3.5q-.3-1.5-.5-4.1l2-6.8.7-2.8a12.3 12.3 0 01-2.3 2.2 9 9 0 00-2 1.4l-2.5 2.6-12.2.4-9.6.3-9.3.1H78.9a54.8 54.8 0 00-5.7-.7l-4.4-.1a31.3 31.3 0 00-4.5.3 27.4 27.4 0 01-4 .3 12.4 12.4 0 01-1.9-.2 17.6 17.6 0 01-2-.4 28.4 28.4 0 01-4.4-2 30.1 30.1 0 00-3-1.6l-3.7-1.8a45.8 45.8 0 00-6.6-2.6l-3-.8-6-6a4.6 4.6 0 00-1.4-3.4 19.9 19.9 0 01-3-4 35.5 35.5 0 01-2.9-7.7q-1.4-5-1.4-14a89.6 89.6 0 01.5-9.9 31.7 31.7 0 012.3-9q3.1-7 5.7-12a83.1 83.1 0 015.5-9.2 70.8 70.8 0 016.6-8q3.6-3.9 8.7-8.7A18.5 18.5 0 0154 158q2.8-1.7 6.4-3.4a62 62 0 017.6-3 25.6 25.6 0 017.9-1.2l7-2.3q5.3 0 9.6.2t8.3 0h18.5a7.6 7.6 0 012 3.6q.4 1.9.6 4a23.6 23.6 0 01.1 4.3 18.3 18.3 0 00.2 3.8l-5 13-8.4.9a27.7 27.7 0 00-4.8.4 34.1 34.1 0 01-5.7.4 3.9 3.9 0 01-1.2-.4 23 23 0 00-2.7-1 16 16 0 00-3.3.6l-5.2 1.4q-2.8.8-5.8 2a37.9 37.9 0 00-4.5 2q-.5 0-1.9 1.3t-2.8 2.6l-2.5 2.6-1 1.1-1.3 1.2a11.9 11.9 0 00-2.6 1.7 20 20 0 01-3.6 6.2l-4 4.5a24.3 24.3 0 00-3.2 4.9 15.2 15.2 0 00-1.3 6.8 32.9 32.9 0 001.2 9 25.7 25.7 0 003.2 7.1 22.4 22.4 0 004.5 5.1 7.9 7.9 0 005 2 1 1 0 00.8-.2 28 28 0 003 1.2 23 23 0 002.8.7l3.2.6 4.9.9q6.7 0 12-.5t13-.7l10.7.6 4.5.1 6 .2a9 9 0 00.5 2l1.6 4.8q0 2.2 1.6 2.7h.2v-.2l3.9-13.3 4.2-9.5q1.6-3.8 4.5-9.5a40.7 40.7 0 014.3-7.4q3-4.2 6.3-13.9a160.1 160.1 0 017.6-19 172.5 172.5 0 018.3-15.3q4.4-7 9.3-14.3t10.3-15.8h3.8a16.4 16.4 0 003 .3h4l6.3.5 5.2.2 5.2.3q2.6.2 6 .2l1.8 3.2q1.6 2.7 2.5 3.9a40.8 40.8 0 014.1 12.7l1.8 12 .6 5.7q.3 3.5 1 7 .5 3.4 1.2 6.5a13.3 13.3 0 002 4.8l3.7 21.3 3 18.4 2.9 18q1.5 9.3 3.6 20.6l-7.2.9a7.5 7.5 0 00-3.2.1 16.3 16.3 0 01-4 .4l-4.4-.1a32.6 32.6 0 01-3.3-.4l-8-.9-1.8-12.6a103.6 103.6 0 01-.8-13.5q0-2.5.5-2.8t.6-1.4q0-1.2-.4-4.6t-1-7l-10.9.4q-5.6.2-10.9.1h-7.3q-4 0-7.6.2a44.2 44.2 0 00-6.6.7 7.9 7.9 0 00-4.5 2.2l-4 11.4-3.5 9.8-3.5 9.5-3.9 10.7zm74-101.2l-3.3 3.1a42.6 42.6 0 00-8.5 12.6 153.6 153.6 0 00-6.2 15.5l-3.6 8.5v.3a.6.6 0 00.2.4.6.6 0 010 .4q5.5 0 12-.5l4.7.1 6 .1h11l1.4-1.7a51.2 51.2 0 01-.7-5.5l-.4-5-.5-10.2a39.5 39.5 0 00-2.3-9.3 49.4 49.4 0 01-2.6-11.7q-.7-.2-.7-.8v-.3h-.8a7.2 7.2 0 01-1-.1 10 10 0 00-1.8-.2 16.8 16.8 0 01-3 4.3zm79 97.3l-14.2-3.7q-1.8-.6-2.3-5.8t-.5-12l.1-13 .2-9 2.3-28.6-2.8-3.7V145h32.9l.2 1.7 4.7-.9 16 35.8.2 1.7 2.5 3v2l3.9 10.3L333 209l1.2 3.7 12.4-11 5.6-10.9v-2l3.4-3.4.5-2 22.1-38h2.3v-2h28.3l2.8 12 1.6 10.8a24 24 0 00-3 6 15.4 15.4 0 00-.3 2.5l-2.4 5.6 1.2 13.5q.4 5.2.4 10 0 5-.3 9.7t-1 12a67 67 0 01-.8 6.7q-.8 5.4-1.4 11.8t-1.4 12.4a75.9 75.9 0 00-.8 8.5l-1.3 2h-4.3l-14.2-4q-1.5-.6-2.2-6a101.1 101.1 0 01-.6-11.9q0-6.8.2-13t.3-8.8l-.3-26.7a18.6 18.6 0 00-3.2 7.1 32.1 32.1 0 00-.6 5.8 12.9 12.9 0 01-.5 4 2.4 2.4 0 01-2.6 1.5q-1 0-1.3-.2a6.7 6.7 0 00-3.8 2 36.7 36.7 0 00-2.4 3.2l-2 3.1a5.1 5.1 0 01-2.8 2.2 13.5 13.5 0 00-4.2 4.2 26.6 26.6 0 00-2 4.6l-1.4 4a6.9 6.9 0 01-2 3l-8.7 8h-.3a2 2 0 01-.6-.2 3.6 3.6 0 00-1.2-.1q-.5.6-.7.6v.3l-4.4-1.7a17.2 17.2 0 01-3-1.5l-3.4-2.2h-.8q-.3-.6-.3-.3t-.5-.9H327l-6.1-7.6a4.1 4.1 0 01-1.7-2.3l-1.3-4a47.3 47.3 0 00-1.5-4.5 9.8 9.8 0 00-2.5-3.7 5.7 5.7 0 01-2.3-2.3l-1.5-3a21.2 21.2 0 00-1.7-2.8 6.6 6.6 0 00-3-2.1q-.2.3-1.2.3-2.1 0-2.1-2.3a13.3 13.3 0 01.4-2.8 16.7 16.7 0 00.4-3.7 9.2 9.2 0 00-2-6l-3.4-7H294a48.7 48.7 0 00-.5 6.6v12.6l-.1 8.8q-.1 4.5-.7 10.2a48.2 48.2 0 01-1 6.7l-2.3 11.3q-1.3 6.1-2.2 12.2a68.9 68.9 0 00-.9 9.3l-1.8 1.4zM511.9 131l-4-2.7a4 4 0 01-2-4q-3.3-3.7-5.5-6.5t-4.2-5.6l-4-5.7a85.2 85.2 0 00-5.7-7.2 5.3 5.3 0 00-2.4-4.5 11 11 0 01-3.6-4.8 21.6 21.6 0 00-3-2.5 15 15 0 01-3.5-3.8l-8.3 2.6a32.5 32.5 0 01-5.2 2.4A36.3 36.3 0 01455 90l1 4.6-1.3 17.7.8 12-5 4.4h-20.2l-2.9 2h-3.9l-1-5.9V79l-1.8-.5 5.2-.8V7.8l4.7-3.9 10.6 2 1.8-2.3h4.2l23.4-1.8q.3 2.1 3 2.8a39.5 39.5 0 005.8.9 40.5 40.5 0 0118.2 4.9 44.5 44.5 0 0113 11 45.1 45.1 0 017.8 14.6 52.7 52.7 0 012.6 16 12.8 12.8 0 01-2.6 7.5 35.8 35.8 0 01-6.3 6.8 68 68 0 01-7.8 5.6 34 34 0 01-6.4 3.2q6.5 7.8 13.7 15.3t15.7 15.2a51 51 0 003.8 3.9q2.2 2 4.4 4.3a51.4 51.4 0 013.7 4.1 5.8 5.8 0 011.6 3.3q0 1.8-4.8 3.6a107.6 107.6 0 00-10 4.4l-9.1 4.4zM455 25.6l-3.6.4v17.7l2 12.2v6.8h4l35.8-7 9.4-13q-1.6-6-5-8.5a21.4 21.4 0 00-7.6-3.5 49.8 49.8 0 00-9-1.3 36.3 36.3 0 01-8.8-1.6l-7.7-1.7a28.7 28.7 0 00-6.1-.6l-3.4.1zM308.6 132.1v-16.4l-1.5-3.6 2.3-10.7V58.5l-1.3-3.6V7.5l3.6-4.1 1.6.5h23.1l3.7 2.9L366.3 3 387.1 0l10.4 3.4V16l-4.6 2.6-55.7 4.2-1.8 1.5 3.9 26.6 2.3 7h6.8l20.8-2.4 5.2.6h17.2l1.5 7.5-3.1 3.9-10.1 1.8h-8.1l-28.6 5.7V84l3.1 26.5 2.6.3h53.3l5 1.5.5 2.8a19.8 19.8 0 00.5 1.9v1.8a4.5 4.5 0 01-1 1.5 20 20 0 00-1.9 3.2l-11.1.8-23.7 4.7-10.1 3zM43.4 130l-6.5 1.3-3.1-6-.8-14.8V74.1l4.4-25V32.2H36q0-1-2.1-1a3.5 3.5 0 00-2.9 1.3l-4.6.5a22.5 22.5 0 00-2.5.2 19.9 19.9 0 01-2.2 0 12 12 0 00-2.1-.6 14 14 0 00-3.4-.4q-1.8 0-2 .8l-4.9.4-3.7.1a4.6 4.6 0 01-1.3-.6 9.6 9.6 0 01-1-1A4.1 4.1 0 011 29.5a16.2 16.2 0 01-.9-5L0 19v-4l.7-.6.9-.9L3.4 12h4.1a25.8 25.8 0 003.7.2h4.1L17 12l1.3-.8q8.8 0 16.4.6t15 1.5l14.9 1.4q7.6.7 16.9.6a1.8 1.8 0 00.5 1.3l.8.8a6.5 6.5 0 002.3.3q4 0 6.1-.2A20.8 20.8 0 0095 17l1.2-.3-4.3-7 .8-2.7 13.5-.8 2.6.6 18 20 2.3 3.1 19 17.4 3.3-1.8 2.1-2.6 2.6-1 3.9-7.6 4.2-5 7-4 14.5-19.8h17.2l4.7.5v5.2L202 20l-3.9 10.4-20 29.7-7 6-3.7 6h-1v4.3l-.5 2.1 1.3 9.9 1.8 6.2-1.8 17.7 1.3 12-5.2 4.4H143l-2.9 2h-3.9l-2.8-5.9 4.1-53h.6l-2.9-1.6-.8-2.9-21.3-21.5-4.2-8.1-5.2-8.6a24.6 24.6 0 01-4.8 2.2q-2.7 1-3.7 1.2h-5.6a29.8 29.8 0 01-5.4-.5 48.6 48.6 0 00-5.3.9 8.9 8.9 0 01-4.8.1l-2.3-.8h-9.4l1 14L69.7 62v44.4l1.5 5.5v18l-6.7 2zm178.1-.3L215 131l-3.1-6-1-14.5V62.1l4.9-25V12.6l3.9-5.7 24.4-1.6 2.4 3.1 1.3 98 1.8 5.8 6.8-1.6 12.4 1.6 8.4-2.4h21l5.7 6-2.3 13-13-1.3-11 3.6-27-1.8-8 2.4z" data-name="tyler front" transform="translate(10)"/>
</svg>
